<?xml version="1.0" encoding="UTF-8" standalone="no"?>
<!-- Created with Inkscape (http://www.inkscape.org/) -->

<svg
   width="79.910744mm"
   height="77.364418mm"
   viewBox="0 0 79.910743 77.364418"
   version="1.1"
   id="svg1"
   xml:space="preserve"
   sodipodi:docname="logo-icon.svg"
   inkscape:version="1.4.2 (ebf0e940, 2025-05-08)"
   xmlns:inkscape="http://www.inkscape.org/namespaces/inkscape"
   xmlns:sodipodi="http://sodipodi.sourceforge.net/DTD/sodipodi-0.dtd"
   xmlns:xlink="http://www.w3.org/1999/xlink"
   xmlns="http://www.w3.org/2000/svg"
   xmlns:svg="http://www.w3.org/2000/svg"><sodipodi:namedview
     id="namedview1"
     pagecolor="#ffffff"
     bordercolor="#000000"
     borderopacity="0.25"
     inkscape:showpageshadow="2"
     inkscape:pageopacity="0.0"
     inkscape:pagecheckerboard="0"
     inkscape:deskcolor="#d1d1d1"
     inkscape:document-units="mm"
     inkscape:zoom="1.2616985"
     inkscape:cx="118.09478"
     inkscape:cy="177.53846"
     inkscape:window-width="1800"
     inkscape:window-height="1065"
     inkscape:window-x="0"
     inkscape:window-y="40"
     inkscape:window-maximized="1"
     inkscape:current-layer="layer1" /><defs
     id="defs1"><linearGradient
       id="linearGradient9632"
       inkscape:collect="always"><stop
         style="stop-color:#254a95;stop-opacity:1;"
         offset="0"
         id="stop9632" /><stop
         style="stop-color:#0a162e;stop-opacity:1;"
         offset="1"
         id="stop9633" /></linearGradient><linearGradient
       id="linearGradient9623"><stop
         style="stop-color:#250000;stop-opacity:1;"
         offset="0"
         id="stop9622" /><stop
         style="stop-color:#000000;stop-opacity:0;"
         offset="1"
         id="stop9623" /></linearGradient><linearGradient
       id="linearGradient9618"><stop
         style="stop-color:#000000;stop-opacity:1;"
         offset="0"
         id="stop9620" /><stop
         style="stop-color:#000000;stop-opacity:0;"
         offset="1"
         id="stop9621" /></linearGradient><linearGradient
       id="linearGradient9618-1"><stop
         style="stop-color:#000000;stop-opacity:1;"
         offset="0"
         id="stop9618" /><stop
         style="stop-color:#000000;stop-opacity:0;"
         offset="1"
         id="stop9619" /></linearGradient><linearGradient
       inkscape:collect="always"
       xlink:href="#linearGradient9632"
       id="linearGradient9633"
       x1="112.72964"
       y1="9.2223682"
       x2="112.72964"
       y2="141.20926"
       gradientUnits="userSpaceOnUse" /><linearGradient
       inkscape:collect="always"
       xlink:href="#linearGradient9632"
       id="linearGradient9634"
       gradientUnits="userSpaceOnUse"
       x1="112.72964"
       y1="9.2223682"
       x2="112.72964"
       y2="141.20926"
       gradientTransform="matrix(1.101365,0,0,1.101365,-7.3676686,24.194718)" /></defs><g
     inkscape:label="Layer 1"
     inkscape:groupmode="layer"
     id="layer1"
     transform="translate(-54.516428,-24.401402)"><g
       id="g9632"
       style="fill:url(#linearGradient9633);stroke:#ffffff;stroke-width:0.1;stroke-dasharray:none;stroke-opacity:1"
       transform="matrix(0.73466146,0,0,0.73466146,11.821317,0.61607619)"><path
         style="fill:url(#linearGradient9634);fill-opacity:1;fill-rule:evenodd;stroke:#ffffff;stroke-width:0.143593;stroke-dasharray:none;stroke-opacity:1"
         d="m 79.145163,126.34387 c -2.153738,-0.99715 -3.642525,-3.2311 -3.642525,-5.46565 0,-2.20329 0.951936,-3.42633 9.010779,-11.5769 8.471745,-8.56816 10.032403,-9.808966 14.010023,-11.138623 l 2.47692,-0.827984 18.64978,-0.177541 18.64978,-0.17754 2.19634,-0.622657 c 4.09427,-1.160705 8.67777,-3.350594 11.55986,-5.523004 1.71866,-1.295469 1.8633,-0.343977 0.64469,4.240928 -1.52321,5.730911 -5.50314,10.539901 -10.90406,13.175471 -4.37528,2.13509 -4.18046,2.11534 -22.72941,2.30408 l -16.60997,0.16903 -2.0251,0.98968 c -1.751681,0.85608 -2.953842,1.90456 -8.903658,7.7656 -8.00346,7.88402 -8.995185,8.43382 -12.383449,6.86511 z m -9.849807,-15.65965 c -0.318446,-0.31845 -0.231716,-32.412814 0.09477,-35.074792 1.347506,-10.98648 9.627195,-20.153394 20.685366,-22.90195 l 2.182787,-0.542543 21.418101,-0.152419 21.41811,-0.152418 1.97957,-0.937647 c 1.49637,-0.708772 2.75288,-1.683062 5.14761,-3.991446 5.54931,-5.34922 10.99178,-5.21428 13.31517,0.330134 2.42783,5.79361 -7.52155,15.943152 -17.38261,17.73232 -1.70261,0.308921 -6.65114,0.398782 -22.39596,0.406701 -22.282696,0.0112 -22.019964,-0.0078 -25.517186,1.850491 -5.066537,2.692231 -7.365734,6.647409 -7.519738,12.935753 -0.100802,4.114172 -0.230079,4.067705 3.320417,1.193142 4.378396,-3.544854 7.097229,-5.080642 10.822531,-6.113326 0.83976,-0.232784 7.329566,-0.395191 20.746036,-0.519162 l 19.52399,-0.180391 2.86659,-0.779601 c 3.5631,-0.969015 8.08876,-3.122327 11.02701,-5.246661 2.77176,-2.003979 2.57186,-2.33735 2.56425,4.276413 -0.0101,8.2142 -2.00124,10.785096 -10.4841,13.532308 -4.89304,1.584632 -4.62375,1.565963 -25.35205,1.75737 l -19.378285,0.17895 -2.53344,0.90671 c -5.038618,1.80332 -7.560743,3.787175 -18.790508,14.780284 -6.769909,6.62722 -7.345258,7.12495 -7.758431,6.71178 z"
         id="path9618" /></g></g></svg>
