<?xml version="1.0" encoding="UTF-8" standalone="no"?>
<!-- Created with Inkscape (http://www.inkscape.org/) -->

<svg
   width="132.08679mm"
   height="93.199844mm"
   viewBox="0 0 132.08679 93.199844"
   version="1.1"
   id="svg1"
   xml:space="preserve"
   sodipodi:docname="logo.svg"
   inkscape:version="1.4.2 (ebf0e940, 2025-05-08)"
   xmlns:inkscape="http://www.inkscape.org/namespaces/inkscape"
   xmlns:sodipodi="http://sodipodi.sourceforge.net/DTD/sodipodi-0.dtd"
   xmlns:xlink="http://www.w3.org/1999/xlink"
   xmlns="http://www.w3.org/2000/svg"
   xmlns:svg="http://www.w3.org/2000/svg"><sodipodi:namedview
     id="namedview1"
     pagecolor="#ffffff"
     bordercolor="#000000"
     borderopacity="0.25"
     inkscape:showpageshadow="2"
     inkscape:pageopacity="0.0"
     inkscape:pagecheckerboard="0"
     inkscape:deskcolor="#d1d1d1"
     inkscape:document-units="mm"
     inkscape:zoom="1.2616985"
     inkscape:cx="212.41209"
     inkscape:cy="206.07143"
     inkscape:window-width="1800"
     inkscape:window-height="1065"
     inkscape:window-x="0"
     inkscape:window-y="40"
     inkscape:window-maximized="1"
     inkscape:current-layer="layer1" /><defs
     id="defs1"><linearGradient
       id="linearGradient9632"
       inkscape:collect="always"><stop
         style="stop-color:#254a95;stop-opacity:1;"
         offset="0"
         id="stop9632" /><stop
         style="stop-color:#0a162e;stop-opacity:1;"
         offset="1"
         id="stop9633" /></linearGradient><linearGradient
       id="linearGradient9623"><stop
         style="stop-color:#250000;stop-opacity:1;"
         offset="0"
         id="stop9622" /><stop
         style="stop-color:#000000;stop-opacity:0;"
         offset="1"
         id="stop9623" /></linearGradient><linearGradient
       id="linearGradient9618"><stop
         style="stop-color:#000000;stop-opacity:1;"
         offset="0"
         id="stop9620" /><stop
         style="stop-color:#000000;stop-opacity:0;"
         offset="1"
         id="stop9621" /></linearGradient><linearGradient
       id="linearGradient9618-1"><stop
         style="stop-color:#000000;stop-opacity:1;"
         offset="0"
         id="stop9618" /><stop
         style="stop-color:#000000;stop-opacity:0;"
         offset="1"
         id="stop9619" /></linearGradient><linearGradient
       inkscape:collect="always"
       xlink:href="#linearGradient9632"
       id="linearGradient9633"
       x1="112.72964"
       y1="9.2223682"
       x2="112.72964"
       y2="141.20926"
       gradientUnits="userSpaceOnUse" /><linearGradient
       inkscape:collect="always"
       xlink:href="#linearGradient9632"
       id="linearGradient9634"
       gradientUnits="userSpaceOnUse"
       x1="112.72964"
       y1="9.2223682"
       x2="112.72964"
       y2="141.20926"
       gradientTransform="matrix(0.76700453,0,0,0.76700453,29.251271,27.146477)" /><linearGradient
       inkscape:collect="always"
       xlink:href="#linearGradient9632"
       id="linearGradient9635"
       gradientUnits="userSpaceOnUse"
       x1="112.72964"
       y1="9.2223682"
       x2="112.72964"
       y2="141.20926" /></defs><g
     inkscape:label="Layer 1"
     inkscape:groupmode="layer"
     id="layer1"
     transform="translate(-28.638111,-18.11028)"><g
       id="g9632"
       style="fill:url(#linearGradient9633);stroke:#ffffff;stroke-width:0.1;stroke-dasharray:none;stroke-opacity:1"
       transform="matrix(0.91899828,0,0,0.91899828,-8.9168423,-15.0579)"><path
         style="fill:url(#linearGradient9634);fill-opacity:1;fill-rule:evenodd;stroke:#ffffff;stroke-width:0.1;stroke-dasharray:none;stroke-opacity:1"
         d="m 89.499898,98.284432 c -1.49989,-0.694431 -2.5367,-2.250177 -2.5367,-3.806345 0,-1.5344 0.66294,-2.386143 6.27522,-8.062306 5.89983,-5.966973 6.986692,-6.831081 9.756762,-7.757071 l 1.72496,-0.576618 12.98794,-0.123642 12.98794,-0.123641 1.52956,-0.433626 c 2.8513,-0.80833 6.04331,-2.333396 8.05043,-3.84629 1.1969,-0.902181 1.29763,-0.23955 0.44897,2.953436 -1.06078,3.991078 -3.83245,7.340119 -7.59372,9.175568 -3.047,1.4869 -2.91133,1.473148 -15.82905,1.604589 l -11.56739,0.117705 -1.41031,0.68923 c -1.21989,0.596177 -2.05709,1.326365 -6.200622,5.408064 -5.57371,5.490526 -6.26436,5.873414 -8.62399,4.780947 z m -6.85953,-10.905577 c -0.22177,-0.221772 -0.16137,-22.572691 0.066,-24.426526 0.93842,-7.651123 6.7045,-14.035078 14.40555,-15.949207 l 1.52012,-0.377834 14.915842,-0.106146 14.91584,-0.106146 1.3786,-0.652989 c 1.04209,-0.493598 1.91714,-1.172106 3.58486,-2.779694 3.86461,-3.725264 7.65481,-3.63129 9.27285,0.22991 1.69077,4.034743 -5.2381,11.103012 -12.10547,12.349011 -1.18572,0.215137 -4.63194,0.277717 -15.59683,0.283232 -15.517952,0.0078 -15.334982,-0.0054 -17.770492,1.288705 -3.5284,1.874904 -5.12959,4.62934 -5.23684,9.008622 -0.0702,2.865161 -0.16023,2.832801 2.31238,0.830919 3.04917,-2.468681 4.9426,-3.538223 7.536952,-4.257397 0.58482,-0.162114 5.1044,-0.275216 14.4478,-0.361551 l 13.59675,-0.125627 1.99633,-0.542924 c 2.48139,-0.674834 5.63312,-2.174428 7.67935,-3.653841 1.93029,-1.395596 1.79108,-1.62776 1.78578,2.978148 -0.007,5.720473 -1.39369,7.510877 -7.30126,9.42407 -3.40758,1.103558 -3.22004,1.090557 -17.65549,1.223855 l -13.49528,0.124623 -1.76432,0.631444 c -3.508962,1.255855 -5.265402,2.637437 -13.085952,10.293171 -4.71465,4.615281 -5.11533,4.961906 -5.40307,4.674172 z"
         id="path9618" /><path
         style="font-weight:bold;font-size:27.2531px;line-height:0.1;font-family:Damascus;-inkscape-font-specification:'Damascus, Bold';text-align:center;text-anchor:middle;fill:url(#linearGradient9635);fill-rule:evenodd;stroke:#ffffff;stroke-width:0.1;stroke-dasharray:none;stroke-opacity:1"
         d="m 50.796959,133.07635 h -4.060711 v -19.45871 h 11.146517 v 3.37939 h -7.085806 v 5.01457 h 6.595251 v 3.37938 h -6.595251 z m 10.764969,0 v -19.45871 h 4.169724 v 16.02482 h 7.876146 v 3.43389 z m 30.932262,-6.86778 q 0,2.01673 -0.899353,3.65192 -0.872099,1.60793 -2.670804,2.56179 -1.771451,0.92661 -4.496761,0.92661 -3.86994,0 -5.886669,-1.96223 -2.01673,-1.98947 -2.01673,-5.23259 v -12.53643 h 4.115218 v 11.90961 q 0,2.39827 0.981112,3.37938 0.981111,0.98111 2.916081,0.98111 2.01673,0 2.916082,-1.06287 0.926605,-1.06287 0.926605,-3.32488 v -11.88235 h 4.115219 z m 20.46709,6.86778 h -4.79654 l -4.30599,-7.00404 -4.333247,7.00404 h -4.633027 l 6.458984,-10.02914 -6.07744,-9.42957 h 4.633027 l 4.006203,6.64976 3.92445,-6.64976 h 4.66028 l -6.1047,9.67485 z m 8.721,-19.45871 q 4.0062,0 5.83216,1.19914 1.82596,1.17188 1.82596,3.65191 0,1.82596 -0.98112,2.91609 -0.95385,1.06287 -2.31651,1.36265 v 0.13627 q 0.95386,0.19077 1.82596,0.68132 0.8721,0.49056 1.41716,1.41716 0.54506,0.92661 0.54506,2.45278 0,2.67081 -1.93497,4.16973 -1.90772,1.47166 -5.23259,1.47166 h -7.27658 v -19.45871 z m 0.21802,7.79439 q 1.77145,0 2.45278,-0.65408 0.70858,-0.65407 0.70858,-1.71694 0,-1.11738 -0.81759,-1.63519 -0.8176,-0.54506 -2.53454,-0.54506 h -2.153 v 4.55127 z m -2.34377,3.1341 v 5.2326 h 2.64355 q 1.85321,0 2.5618,-0.73583 0.73583,-0.76309 0.73583,-1.93497 0,-1.06287 -0.73583,-1.79871 -0.73584,-0.76309 -2.69806,-0.76309 z m 25.99949,8.53022 -1.49892,-4.57852 h -6.86779 l -1.49892,4.57852 h -4.49676 l 6.84053,-19.54047 h 5.12358 l 6.89504,19.54047 z m -3.81544,-12.29114 q -0.10901,-0.4088 -0.35429,-1.22639 -0.21802,-0.8176 -0.43605,-1.66244 -0.21802,-0.8721 -0.35429,-1.41716 -0.10901,0.62682 -0.32704,1.44441 -0.19077,0.79034 -0.38154,1.58068 -0.19077,0.76309 -0.32704,1.2809 l -1.3899,4.22423 h 4.93281 z m 22.23852,6.89503 q 0,2.58905 -1.88047,4.14247 -1.85321,1.52618 -5.2871,1.52618 -3.0796,0 -5.50512,-1.17189 v -3.84268 q 1.3899,0.59956 2.86157,1.11737 1.49892,0.49056 2.97059,0.49056 1.52617,0 2.15299,-0.57232 0.65408,-0.59956 0.65408,-1.49892 0,-0.73583 -0.51781,-1.25364 -0.49056,-0.51781 -1.3354,-0.95386 -0.84485,-0.4633 -1.93497,-0.98111 -0.68133,-0.32704 -1.47167,-0.76309 -0.79034,-0.4633 -1.52617,-1.11737 -0.70858,-0.68133 -1.17189,-1.63519 -0.4633,-0.95386 -0.4633,-2.28926 0,-2.6163 1.77145,-4.06071 1.77145,-1.47167 4.8238,-1.47167 1.52617,0 2.88883,0.35429 1.38991,0.35429 2.88883,1.00837 l -1.3354,3.21586 q -1.33541,-0.54506 -2.39828,-0.84484 -1.06287,-0.29979 -2.18024,-0.29979 -1.17189,0 -1.79871,0.54506 -0.62682,0.54507 -0.62682,1.41716 0,1.03562 0.9266,1.63519 0.92661,0.59957 2.75257,1.47167 1.49892,0.70858 2.53454,1.47167 1.06287,0.76308 1.63518,1.7987 0.57232,1.03562 0.57232,2.56179 z m 14.74394,5.39611 h -11.20103 v -19.45871 h 11.20103 v 3.37939 h -7.08581 v 4.27873 h 6.59525 v 3.37939 h -6.59525 v 5.01457 h 7.08581 z"
         id="text9618"
         aria-label="FLUXBASE" /></g></g></svg>
